<?xml version="1.0" encoding="UTF-8"?>
<svg version="1.1" xmlns="http://www.w3.org/2000/svg" width="16" height="16">
<path d="M0 0 C0.33 1.32 0.66 2.64 1 4 C1.99 4 2.98 4 4 4 C4.36474164 9.47112462 4.36474164 9.47112462 2.75 11.8125 C0.7416328 13.1753206 -0.60009131 13.63144259 -3 14 C-5.359375 13.44140625 -5.359375 13.44140625 -7.75 12.5625 C-8.54921875 12.27503906 -9.3484375 11.98757813 -10.171875 11.69140625 C-10.77515625 11.46324219 -11.3784375 11.23507812 -12 11 C-9.76687117 3.98159509 -9.76687117 3.98159509 -8 1 C-5.29120665 -0.35439668 -2.99066732 -0.06501451 0 0 Z M-1 7 C-1 7.99 -1 8.98 -1 10 C-0.34 10 0.32 10 1 10 C1.33 8.68 1.66 7.36 2 6 C0.7763932 5.9254644 0.7763932 5.9254644 -1 7 Z M-5 8 C-4 10 -4 10 -4 10 Z " fill="#8CB272" transform="translate(12,0)"/>
<path d="M0 0 C0 0.66 0 1.32 0 2 C-1.98 2.66 -3.96 3.32 -6 4 C-5.814375 4.928125 -5.62875 5.85625 -5.4375 6.8125 C-5 10 -5 10 -6 13 C-7.98 12.34 -9.96 11.68 -12 11 C-9.76687117 3.98159509 -9.76687117 3.98159509 -8 1 C-5.29120665 -0.35439668 -2.99066732 -0.06501451 0 0 Z " fill="#B4E096" transform="translate(12,0)"/>
<path d="M0 0 C0.33 0 0.66 0 1 0 C2.31626692 3.61973402 3 6.09567131 3 10 C1.02 9.34 -0.96 8.68 -3 8 C-1.125 2.25 -1.125 2.25 0 0 Z " fill="#A2D951" transform="translate(3,3)"/>
<path d="M0 0 C2.875 -0.1875 2.875 -0.1875 6 0 C6.66 0.99 7.32 1.98 8 3 C5.08517222 3.80967438 3.53886783 4.21845993 0.6875 3.0625 C0.130625 2.711875 -0.42625 2.36125 -1 2 C-0.67 1.34 -0.34 0.68 0 0 Z " fill="#1B2517" transform="translate(6,3)"/>
</svg>
